<svg width="100" height="66" viewBox="0 0 100 66" fill="none" xmlns="http://www.w3.org/2000/svg">
  <defs>
    <linearGradient id="propertyLine" x1="40" y1="49" x2="94" y2="13" gradientUnits="userSpaceOnUse">
      <stop stop-color="#0D6DFF"/>
      <stop offset="1" stop-color="#0EECE4"/>
    </linearGradient>
    <linearGradient id="propertyArea" x1="68" y1="18" x2="68" y2="54" gradientUnits="userSpaceOnUse">
      <stop stop-color="#0EECE4" stop-opacity="0.32"/>
      <stop offset="1" stop-color="#0D6DFF" stop-opacity="0.04"/>
    </linearGradient>
  </defs>
  <rect x="6" y="10" width="25" height="4" rx="2" fill="#BEE5FB"/>
  <rect x="6" y="25" width="26" height="10" rx="3" fill="#0D6DFF" fill-opacity="0.22"/>
  <rect x="10" y="28" width="17" height="4" rx="2" fill="#0D6DFF"/>
  <rect x="6" y="42" width="17" height="4" rx="2" fill="#BEE5FB" fill-opacity="0.75"/>
  <path d="M36 8V57" stroke="#BEE5FB" stroke-width="1" stroke-dasharray="3 3"/>
  <path d="M41 20H95M41 36H95M41 52H95" stroke="#BEE5FB" stroke-opacity="0.65" stroke-width="1" stroke-dasharray="2 3"/>
  <path d="M42 48C49 48 51 38 58 40C65 42 67 29 74 31C81 33 84 17 94 15V53H42V48Z" fill="url(#propertyArea)"/>
  <path d="M42 48C49 48 51 38 58 40C65 42 67 29 74 31C81 33 84 17 94 15" stroke="url(#propertyLine)" stroke-width="2.2" stroke-linecap="round"/>
  <circle cx="74" cy="31" r="2.5" fill="#0D6DFF" stroke="#BEE5FB"/>
  <circle cx="94" cy="15" r="2.5" fill="#0EECE4" stroke="#BEE5FB"/>
</svg>
