<svg width="100" height="66" viewBox="0 0 100 66" fill="none" xmlns="http://www.w3.org/2000/svg">
  <defs>
    <linearGradient id="chartCardPrimary" x1="29" y1="48" x2="94" y2="12" gradientUnits="userSpaceOnUse">
      <stop stop-color="#0D6DFF"/>
      <stop offset="1" stop-color="#0EECE4"/>
    </linearGradient>
    <linearGradient id="chartCardArea" x1="61" y1="13" x2="61" y2="51" gradientUnits="userSpaceOnUse">
      <stop stop-color="#0EECE4" stop-opacity="0.38"/>
      <stop offset="1" stop-color="#0D6DFF" stop-opacity="0.04"/>
    </linearGradient>
  </defs>
  <path d="M30 15H96M30 27H96M30 39H96M30 51H96" stroke="white" stroke-opacity="0.12" stroke-dasharray="2 2"/>
  <path d="M31 46L42 38L52 41L64 27L75 32L86 18L94 22V51H31V46Z" fill="url(#chartCardArea)"/>
  <path d="M31 46L42 38L52 41L64 27L75 32L86 18L94 22" stroke="url(#chartCardPrimary)" stroke-width="2.2" stroke-linecap="round" stroke-linejoin="round"/>
  <g fill="#0D6DFF" stroke="#BEE5FB" stroke-width="1">
    <circle cx="42" cy="38" r="2.3"/>
    <circle cx="64" cy="27" r="2.3"/>
    <circle cx="86" cy="18" r="2.3"/>
  </g>
  <circle cx="16" cy="21" r="10" fill="#0D6DFF" fill-opacity="0.12" stroke="#BEE5FB" stroke-opacity="0.5"/>
  <path d="M10 24L14 20L18 22L23 15" stroke="url(#chartCardPrimary)" stroke-width="2" stroke-linecap="round" stroke-linejoin="round"/>
  <rect x="7" y="38" width="18" height="3.5" rx="1.75" fill="white" fill-opacity="0.42"/>
  <rect x="7" y="46" width="13" height="5" rx="2.5" fill="url(#chartCardPrimary)"/>
  <path d="M6 57H96" stroke="white" stroke-opacity="0.2"/>
  <circle cx="10" cy="62" r="2.5" fill="#3CD495"/>
  <rect x="16" y="60" width="24" height="4" rx="2" fill="white" fill-opacity="0.28"/>
  <rect x="78" y="59" width="18" height="6" rx="3" fill="#0D6DFF" fill-opacity="0.32"/>
</svg>
